<svg xmlns="http://www.w3.org/2000/svg" width="24" height="24" viewBox="0 0 24 24" fill="none" stroke="hsl(217.2 91.2% 59.8%)" stroke-width="2" stroke-linecap="round" stroke-linejoin="round">
    <path d="M12 5a3 3 0 1 0-5.9-1.4" />
    <path d="M12 5a3 3 0 1 1-5.9-1.4" />
    <path d="M15 13a3 3 0 1 0-5.9-1.4" />
    <path d="M15 13a3 3 0 1 1-5.9-1.4" />
    <path d="M5 18a3 3 0 1 0-5.9-1.4" />
    <path d="M5 18a3 3 0 1 1-5.9-1.4" />
    <path d="M19 18a3 3 0 1 0-5.9-1.4" />
    <path d="M19 18a3 3 0 1 1-5.9-1.4" />
    <path d="M12 12a3 3 0 1 0-5.9-1.4" />
    <path d="M12 12a3 3 0 1 1-5.9-1.4" />
    <path d="M12 5a3 3 0 1 0 5.9 1.4" />
    <path d="M12 5a3 3 0 1 1 5.9 1.4" />
    <path d="M15 13a3 3 0 1 0 5.9 1.4" />
    <path d="M15 13a3 3 0 1 1 5.9 1.4" />
    <path d="M5 18a3 3 0 1 0 5.9 1.4" />
    <path d="M5 18a3 3 0 1 1 5.9 1.4" />
    <path d="M19 18a3 3 0 1 0 5.9 1.4" />
    <path d="M19 18a3 3 0 1 1 5.9 1.4" />
    <path d="M12 12a3 3 0 1 0 5.9 1.4" />
    <path d="M12 12a3 3 0 1 1 5.9 1.4" />
    <path d="m14.2 4.4-1.9 2.5" />
    <path d="M6.1 6.1 8 8" />
    <path d="m6.1 16.6-1.9-2.5" />
    <path d="M14.2 18.1l-1.9-2.5" />
    <path d="m18.2 11.4-1.9 2.5" />
    <path d="M12.5 8.5 14.5 11" />
    <path d="m9.5 8.5-2 2.5" />
    <path d="M6.1 11.6 8 14" />
    <path d="m9.5 15.5-2-2.5" />
    <path d="M12.5 15.5 14.5 13" />
    <path d="M17.9 16.6l-2.5-1.9" />
    <path d="m17.9 6.1-2.5 1.9" />
</svg>