<svg xmlns="http://www.w3.org/2000/svg" width="24" height="24" viewBox="0 0 24 24" fill="none" stroke="hsl(300, 50%, 60%)" stroke-width="2" stroke-linecap="round" stroke-linejoin="round" class="lucide lucide-brain-circuit"><path d="M12 5a3 3 0 1 0-5.993.129"/><path d="M12 5a3 3 0 1 0 5.993.129"/><path d="M15 13a3 3 0 1 0-5.993.129"/><path d="M15 13a3 3 0 1 0 5.993.129"/><path d="M9 13a3 3 0 1 0-5.993.129"/><path d="M9 13a3 3 0 1 0 5.993.129"/><path d="M2.5 10.5a3 3 0 1 0 5.993.129"/><path d="M15.5 10.5a3 3 0 1 0 5.993.129"/><path d="M12 18a3 3 0 1 0-5.993.129"/><path d="M12 18a3 3 0 1 0 5.993.129"/><path d="M12 5a3 3 0 0 0-3-3h-1"/><path d="M12 5a3 3 0 0 1 3-3h1"/><path d="M9 13a3 3 0 0 1-3-3H5"/><path d="M9 13a3 3 0 0 0 3-3h1"/><path d="M15 13a3 3 0 0 1-3-3h-1"/><path d="M15 13a3 3 0 0 0 3-3h1"/><path d="M6.007 8.129A3 3 0 1 0 9 13"/><path d="M15.007 8.129A3 3 0 1 0 18 13"/><path d="M12 18a3 3 0 0 0 3-3h1"/><path d="M12 18a3 3 0 0 1-3-3H8"/><path d="M12 5a3 3 0 0 1-3 3H8"/><path d="M12 5a3 3 0 0 0 3 3h1"/></svg>