<svg xmlns="http://www.w3.org/2000/svg" width="24" height="24" viewBox="0 0 24 24" fill="none" stroke="#A050A0" stroke-width="2" stroke-linecap="round" stroke-linejoin="round"><path d="M12 5a3 3 0 1 0-5.9-1.4"/><path d="M18.34 4.66A3 3 0 1 0 12.4 3"/><path d="M12 13a3 3 0 1 0-5.9-1.4"/><path d="M18.34 12.66A3 3 0 1 0 12.4 11"/><path d="M12 21a3 3 0 1 0-5.9-1.4"/><path d="M18.34 20.66A3 3 0 1 0 12.4 19"/><path d="M12 5a3 3 0 1 0 5.9 1.4"/><path d="M6.1 3.6A3 3 0 1 0 12 5"/><path d="M12 13a3 3 0 1 0 5.9 1.4"/><path d="M6.1 11.6A3 3 0 1 0 12 13"/><path d="M12 21a3 3 0 1 0 5.9 1.4"/><path d="M6.1 19.6A3 3 0 1 0 12 21"/><path d="M9 7V6"/><path d="M9 6h6"/><path d="M15 6v1"/><path d="m14 11-2 2"/><path d="m10 11 2 2"/><path d="m12 13 v-1.5"/><path d="m10 18-2-2"/><path d="m14 18 2-2"/><path d="m12 21 v-1.5"/><path d="M15 14h1.5"/><path d="M16.5 14h1.5"/><path d="M7.5 14H9"/><path d="M7.5 14H6"/><path d="M15 8h1.5"/><path d="M16.5 8h1.5"/><path d="M7.5 8H9"/><path d="M7.5 8H6"/></svg>