<svg xmlns="http://www.w3.org/2000/svg" width="256" height="256" viewBox="0 0 24 24" fill="none" stroke="#A050A0" stroke-width="2" stroke-linecap="round" stroke-linejoin="round">
    <path d="M12 2a10 10 0 0 0-4.3 19.38"/><path d="M12 2a10 10 0 0 1 4.3 19.38"/>
    <path d="M2 12h2"/>
    <path d="M20 12h2"/>
    <path d="M12 2v2"/>
    <path d="M12 20v2"/>
    <path d="M4.93 4.93 6.34 6.34"/>
    <path d="M17.66 17.66l1.41 1.41"/>
    <path d="m19.07 4.93-1.41 1.41"/>
    <path d="m6.34 17.66 1.41-1.41"/>
    <path d="M12 8a4 4 0 0 0-4 4h8a4 4 0 0 0-4-4Z"/>
    <path d="M9 12a3 3 0 0 0 3 3v0a3 3 0 0 0 3-3"/>
</svg>
